<mxfile host="app.diagrams.net" modified="2021-03-04T09:51:01.608Z" agent="5.0 (Macintosh; Intel Mac OS X 10_15_7) AppleWebKit/537.36 (KHTML, like Gecko) Chrome/88.0.4324.192 Safari/537.36" etag="8AQcnnjOEkVys4s_PZ8L" version="14.4.4" type="github">
  <diagram id="6AJErOQoPHE6RNAamy4t" name="第 1 页">
    <mxGraphModel dx="946" dy="534" grid="1" gridSize="10" guides="1" tooltips="1" connect="1" arrows="1" fold="1" page="1" pageScale="1" pageWidth="827" pageHeight="1169" math="0" shadow="0">
      <root>
        <mxCell id="0" />
        <mxCell id="1" parent="0" />
        <mxCell id="v95WOcgCE8fz8389dzAL-2" value="用户" style="shape=umlActor;verticalLabelPosition=bottom;verticalAlign=top;html=1;outlineConnect=0;gradientColor=#97d077;fillColor=#d5e8d4;strokeColor=#82b366;" vertex="1" parent="1">
          <mxGeometry x="105" y="80" width="30" height="60" as="geometry" />
        </mxCell>
        <mxCell id="v95WOcgCE8fz8389dzAL-5" value="" style="endArrow=none;html=1;" edge="1" parent="1">
          <mxGeometry width="50" height="50" relative="1" as="geometry">
            <mxPoint x="1040" y="69" as="sourcePoint" />
            <mxPoint y="69" as="targetPoint" />
          </mxGeometry>
        </mxCell>
        <mxCell id="v95WOcgCE8fz8389dzAL-6" value="&lt;b&gt;用户集团未来币商城&lt;/b&gt;" style="text;html=1;strokeColor=none;fillColor=none;align=center;verticalAlign=middle;whiteSpace=wrap;rounded=0;" vertex="1" parent="1">
          <mxGeometry x="440" y="40" width="190" height="30" as="geometry" />
        </mxCell>
        <mxCell id="v95WOcgCE8fz8389dzAL-7" value="" style="endArrow=none;dashed=1;html=1;" edge="1" parent="1">
          <mxGeometry width="50" height="50" relative="1" as="geometry">
            <mxPoint x="66" y="230" as="sourcePoint" />
            <mxPoint x="66" y="230.0000000000001" as="targetPoint" />
          </mxGeometry>
        </mxCell>
        <mxCell id="v95WOcgCE8fz8389dzAL-8" value="" style="endArrow=classic;html=1;" edge="1" parent="1">
          <mxGeometry width="50" height="50" relative="1" as="geometry">
            <mxPoint x="120" y="160" as="sourcePoint" />
            <mxPoint x="120" y="720" as="targetPoint" />
          </mxGeometry>
        </mxCell>
        <mxCell id="v95WOcgCE8fz8389dzAL-9" value="" style="endArrow=classic;html=1;exitX=0.5;exitY=1;exitDx=0;exitDy=0;" edge="1" parent="1">
          <mxGeometry width="50" height="50" relative="1" as="geometry">
            <mxPoint x="486" y="140" as="sourcePoint" />
            <mxPoint x="486" y="720" as="targetPoint" />
          </mxGeometry>
        </mxCell>
        <mxCell id="v95WOcgCE8fz8389dzAL-10" value="" style="endArrow=classic;html=1;" edge="1" parent="1">
          <mxGeometry width="50" height="50" relative="1" as="geometry">
            <mxPoint x="120" y="200" as="sourcePoint" />
            <mxPoint x="486" y="200" as="targetPoint" />
          </mxGeometry>
        </mxCell>
        <mxCell id="v95WOcgCE8fz8389dzAL-11" value="获取商城首页信息" style="edgeLabel;html=1;align=center;verticalAlign=middle;resizable=0;points=[];" vertex="1" connectable="0" parent="v95WOcgCE8fz8389dzAL-10">
          <mxGeometry x="-0.2312" y="3" relative="1" as="geometry">
            <mxPoint x="27" as="offset" />
          </mxGeometry>
        </mxCell>
        <mxCell id="v95WOcgCE8fz8389dzAL-12" value="" style="endArrow=classic;html=1;exitX=0.5;exitY=1;exitDx=0;exitDy=0;" edge="1" parent="1">
          <mxGeometry width="50" height="50" relative="1" as="geometry">
            <mxPoint x="877.5" y="140" as="sourcePoint" />
            <mxPoint x="881" y="710" as="targetPoint" />
          </mxGeometry>
        </mxCell>
        <mxCell id="v95WOcgCE8fz8389dzAL-13" value="" style="endArrow=classic;html=1;" edge="1" parent="1">
          <mxGeometry width="50" height="50" relative="1" as="geometry">
            <mxPoint x="486" y="260" as="sourcePoint" />
            <mxPoint x="880" y="260" as="targetPoint" />
          </mxGeometry>
        </mxCell>
        <mxCell id="v95WOcgCE8fz8389dzAL-14" value="获取商品分类" style="edgeLabel;html=1;align=center;verticalAlign=middle;resizable=0;points=[];" vertex="1" connectable="0" parent="v95WOcgCE8fz8389dzAL-13">
          <mxGeometry x="-0.0375" y="-2" relative="1" as="geometry">
            <mxPoint as="offset" />
          </mxGeometry>
        </mxCell>
        <mxCell id="v95WOcgCE8fz8389dzAL-16" value="" style="endArrow=classic;html=1;" edge="1" parent="1">
          <mxGeometry width="50" height="50" relative="1" as="geometry">
            <mxPoint x="120" y="490" as="sourcePoint" />
            <mxPoint x="483" y="490" as="targetPoint" />
          </mxGeometry>
        </mxCell>
        <mxCell id="v95WOcgCE8fz8389dzAL-55" value="事业部积分兑换" style="edgeLabel;html=1;align=center;verticalAlign=middle;resizable=0;points=[];" vertex="1" connectable="0" parent="v95WOcgCE8fz8389dzAL-16">
          <mxGeometry x="-0.0193" y="3" relative="1" as="geometry">
            <mxPoint as="offset" />
          </mxGeometry>
        </mxCell>
        <mxCell id="v95WOcgCE8fz8389dzAL-23" value="" style="endArrow=classic;html=1;dashed=1;" edge="1" parent="1">
          <mxGeometry width="50" height="50" relative="1" as="geometry">
            <mxPoint x="483" y="390" as="sourcePoint" />
            <mxPoint x="117" y="390" as="targetPoint" />
          </mxGeometry>
        </mxCell>
        <mxCell id="v95WOcgCE8fz8389dzAL-24" value="返回用户信息" style="edgeLabel;html=1;align=center;verticalAlign=middle;resizable=0;points=[];" vertex="1" connectable="0" parent="v95WOcgCE8fz8389dzAL-23">
          <mxGeometry x="0.0438" y="1" relative="1" as="geometry">
            <mxPoint as="offset" />
          </mxGeometry>
        </mxCell>
        <mxCell id="v95WOcgCE8fz8389dzAL-29" value="1、根据汇率计算可兑换的未来币数量&lt;br&gt;2、扣除事业部对应积分&lt;br&gt;3、增加未来币" style="rounded=0;whiteSpace=wrap;html=1;align=left;fillColor=#d5e8d4;strokeColor=#82b366;" vertex="1" parent="1">
          <mxGeometry x="486" y="540" width="354" height="80" as="geometry" />
        </mxCell>
        <mxCell id="v95WOcgCE8fz8389dzAL-41" value="" style="endArrow=classic;html=1;" edge="1" parent="1">
          <mxGeometry width="50" height="50" relative="1" as="geometry">
            <mxPoint x="486" y="520" as="sourcePoint" />
            <mxPoint x="876" y="520" as="targetPoint" />
          </mxGeometry>
        </mxCell>
        <mxCell id="v95WOcgCE8fz8389dzAL-56" value="扣减" style="edgeLabel;html=1;align=center;verticalAlign=middle;resizable=0;points=[];" vertex="1" connectable="0" parent="v95WOcgCE8fz8389dzAL-41">
          <mxGeometry x="-0.0103" y="-1" relative="1" as="geometry">
            <mxPoint as="offset" />
          </mxGeometry>
        </mxCell>
        <mxCell id="v95WOcgCE8fz8389dzAL-47" value="&lt;b&gt;未来币商城&lt;br&gt;（集团中台）&lt;/b&gt;" style="rounded=0;whiteSpace=wrap;html=1;strokeWidth=2;strokeColor=#BD7000;fillColor=#f0a30a;fontColor=#ffffff;" vertex="1" parent="1">
          <mxGeometry x="420" y="90" width="135" height="50" as="geometry" />
        </mxCell>
        <mxCell id="v95WOcgCE8fz8389dzAL-48" value="&lt;b&gt;积分商城&lt;br&gt;（业务事业部）&lt;/b&gt;" style="rounded=0;whiteSpace=wrap;html=1;strokeWidth=2;fillColor=#cce5ff;strokeColor=#36393d;" vertex="1" parent="1">
          <mxGeometry x="810" y="90" width="150" height="50" as="geometry" />
        </mxCell>
        <mxCell id="v95WOcgCE8fz8389dzAL-49" value="" style="endArrow=classic;html=1;" edge="1" parent="1">
          <mxGeometry width="50" height="50" relative="1" as="geometry">
            <mxPoint x="486" y="290" as="sourcePoint" />
            <mxPoint x="880" y="290" as="targetPoint" />
          </mxGeometry>
        </mxCell>
        <mxCell id="v95WOcgCE8fz8389dzAL-50" value="获取指定商品分类下的商品列表" style="edgeLabel;html=1;align=center;verticalAlign=middle;resizable=0;points=[];" vertex="1" connectable="0" parent="v95WOcgCE8fz8389dzAL-49">
          <mxGeometry x="-0.0375" y="-2" relative="1" as="geometry">
            <mxPoint as="offset" />
          </mxGeometry>
        </mxCell>
        <mxCell id="v95WOcgCE8fz8389dzAL-51" value="" style="endArrow=classic;html=1;" edge="1" parent="1">
          <mxGeometry width="50" height="50" relative="1" as="geometry">
            <mxPoint x="486" y="230" as="sourcePoint" />
            <mxPoint x="880" y="230" as="targetPoint" />
          </mxGeometry>
        </mxCell>
        <mxCell id="v95WOcgCE8fz8389dzAL-52" value="获取对应事业部积分余额" style="edgeLabel;html=1;align=center;verticalAlign=middle;resizable=0;points=[];" vertex="1" connectable="0" parent="v95WOcgCE8fz8389dzAL-51">
          <mxGeometry x="-0.0375" y="-2" relative="1" as="geometry">
            <mxPoint as="offset" />
          </mxGeometry>
        </mxCell>
        <mxCell id="v95WOcgCE8fz8389dzAL-53" value="1、获取广告信息&lt;br&gt;2、获取未来币余额信息" style="rounded=0;whiteSpace=wrap;html=1;align=left;fillColor=#d5e8d4;strokeColor=#82b366;" vertex="1" parent="1">
          <mxGeometry x="486" y="310" width="334" height="60" as="geometry" />
        </mxCell>
        <mxCell id="v95WOcgCE8fz8389dzAL-57" value="" style="endArrow=classic;html=1;dashed=1;" edge="1" parent="1">
          <mxGeometry width="50" height="50" relative="1" as="geometry">
            <mxPoint x="486" y="630" as="sourcePoint" />
            <mxPoint x="120" y="630" as="targetPoint" />
          </mxGeometry>
        </mxCell>
        <mxCell id="v95WOcgCE8fz8389dzAL-58" value="返回用户信息" style="edgeLabel;html=1;align=center;verticalAlign=middle;resizable=0;points=[];" vertex="1" connectable="0" parent="v95WOcgCE8fz8389dzAL-57">
          <mxGeometry x="0.0438" y="1" relative="1" as="geometry">
            <mxPoint as="offset" />
          </mxGeometry>
        </mxCell>
      </root>
    </mxGraphModel>
  </diagram>
</mxfile>
